<?xml version="1.0" encoding="iso-8859-1"?>
<!-- Uploaded to: SVG Repo, www.svgrepo.com, Generator: SVG Repo Mixer Tools -->
<svg fill="currentColor" height="800px" width="800px" version="1.1" id="Layer_1" xmlns="http://www.w3.org/2000/svg" xmlns:xlink="http://www.w3.org/1999/xlink" 
	 viewBox="0 0 512 512" xml:space="preserve">
<g>
	<g>
		<path d="M506.24,218.983c-4.385-4.383-10.583-6.443-16.712-5.56c-19.305,2.781-83.919,13.48-104.837,34.402
			c-12.383,12.38-19.203,28.842-19.203,46.353c0,3.785,0.337,7.514,0.961,11.17l-42.735-2.107
			c9.649-15.346,13.888-29.742,13.098-43.96c-0.738-13.288-5.838-24.555-12.906-34.596l98.941-53.273
			c9.563-5.15,13.141-17.075,7.992-26.638c-5.15-9.565-17.078-13.139-26.638-7.994l-62.799,33.812l33.812-62.795
			c5.15-9.564,1.571-21.491-7.992-26.638c-9.562-5.15-21.491-1.572-26.638,7.992l-53.269,98.929
			c-10.891-7.666-23.193-12.987-37.866-12.987c-13.196,0-26.536,4.277-40.697,13.18l-2.107-42.728
			c3.657,0.625,7.388,0.962,11.172,0.962c17.509,0,33.97-6.819,46.351-19.199c20.923-20.922,31.622-85.534,34.402-104.838
			c0.884-6.136-1.176-12.327-5.559-16.711c-4.383-4.383-10.582-6.439-16.708-5.559c-19.307,2.781-83.92,13.478-104.838,34.4
			c-12.383,12.38-19.203,28.843-19.203,46.353c0,14.76,4.861,28.763,13.8,40.22l4.909,99.53
			c-11.029,11.72-21.871,25.1-31.671,39.253l-20.943-20.95c-7.679-7.68-20.131-7.679-27.812-0.001
			c-7.68,7.679-7.682,20.131-0.003,27.813l27.826,27.829c-6.908,13.425-12.413,26.898-15.874,39.75l-39.765-39.765
			c-7.679-7.679-20.131-7.679-27.812,0c-7.68,7.68-7.68,20.131,0,27.813l53.056,53.055L14.696,394.64
			c-6.819,1.78-12.163,7.076-14.009,13.878c-1.846,6.802,0.089,14.072,5.074,19.056l78.664,78.664
			c3.738,3.738,8.76,5.761,13.906,5.761c1.718,0,3.448-0.225,5.149-0.686c6.803-1.846,12.097-7.19,13.878-14.01l19.14-73.278
			l52.992,52.992c3.84,3.84,8.873,5.761,13.905,5.761c5.033,0,10.066-1.921,13.905-5.762c7.68-7.679,7.68-20.13,0-27.812
			l-39.749-39.749c12.85-3.472,26.321-8.982,39.742-15.884l27.822,27.821c3.841,3.84,8.873,5.761,13.905,5.761
			c5.032,0,10.066-1.921,13.906-5.762c7.679-7.679,7.679-20.131-0.001-27.812l-20.931-20.93
			c14.217-9.824,27.619-20.657,39.287-31.626l99.545,4.91c11.453,8.938,25.46,13.8,40.22,13.8c17.508,0,33.97-6.819,46.35-19.199
			c20.923-20.923,31.622-85.535,34.402-104.841C512.683,229.558,510.623,223.367,506.24,218.983z"/>
	</g>
</g>
</svg>